<svg id="visual" viewBox="0 0 1200 500" width="1200" height="500" xmlns="http://www.w3.org/2000/svg" xmlns:xlink="http://www.w3.org/1999/xlink" version="1.1"><rect x="0" y="0" width="1200" height="500" fill="#212121"></rect><defs><linearGradient id="grad1_0" x1="58.3%" y1="0%" x2="100%" y2="100%"><stop offset="2.0000000000000036%" stop-color="#212121" stop-opacity="1"></stop><stop offset="98%" stop-color="#212121" stop-opacity="1"></stop></linearGradient></defs><defs><linearGradient id="grad2_0" x1="0%" y1="0%" x2="41.7%" y2="100%"><stop offset="2.0000000000000036%" stop-color="#212121" stop-opacity="1"></stop><stop offset="98%" stop-color="#212121" stop-opacity="1"></stop></linearGradient></defs><g transform="translate(1200, 0)"><path d="M0 325C-34.1 320.5 -68.1 315.9 -98.6 303.4C-129 290.8 -155.8 270.3 -181.6 250C-207.4 229.7 -232.3 209.6 -254.8 185.2C-277.4 160.7 -297.8 132 -309.1 100.4C-320.4 68.9 -322.7 34.4 -325 0L0 0Z" fill="#BF4A1A"></path></g><g transform="translate(0, 500)"><path d="M0 -325C32.8 -316.9 65.6 -308.8 97 -298.6C128.5 -288.4 158.7 -276.1 188.1 -258.9C217.5 -241.6 246.2 -219.4 262.9 -191C279.7 -162.6 284.6 -128 292.9 -95.2C301.3 -62.3 313.1 -31.2 325 0L0 0Z" fill="#BF4A1A"></path></g></svg>