<?xml version="1.0" encoding="UTF-8"?>
<svg version="1.1" xmlns="http://www.w3.org/2000/svg" width="48" height="48">
<path d="M0 0 C0.66 0 1.32 0 2 0 C2 9.57 2 19.14 2 29 C-0.31 29 -2.62 29 -5 29 C-5.33 25.04 -5.66 21.08 -6 17 C-8.97 20.465 -8.97 20.465 -12 24 C-13.32 23.34 -14.64 22.68 -16 22 C-21.28 27.28 -26.56 32.56 -32 38 C-32.495 36.515 -32.495 36.515 -33 35 C-32.58226318 34.5875 -32.16452637 34.175 -31.73413086 33.75 C-21.90769002 24.11660243 -21.90769002 24.11660243 -12.69140625 13.91015625 C-9.64754579 10.47263255 -6.3238342 7.30694394 -3.0390625 4.1015625 C-0.95873909 2.16903954 -0.95873909 2.16903954 0 0 Z " fill="#121113" transform="translate(38,10)"/>
<path d="M0 0 C-1.54127351 3.71268094 -3.80843234 5.98115698 -6.6875 8.75 C-9.85422886 11.84828372 -12.92071463 14.95573592 -15.8125 18.3125 C-21.01229508 24.3442623 -21.01229508 24.3442623 -24 27 C-24.99 27 -25.98 27 -27 27 C-27.061875 27.721875 -27.12375 28.44375 -27.1875 29.1875 C-28.2553751 32.88399074 -30.10819816 34.53138868 -33 37 C-33.66 37 -34.32 37 -35 37 C-35 27.76 -35 18.52 -35 9 C-30.26916675 13.05499992 -26.73295757 16.24896309 -23 21 C-17.84414644 16.83143755 -13.47522555 12.30964572 -9.08203125 7.34765625 C-2.56572379 0 -2.56572379 0 0 0 Z " fill="#121114" transform="translate(45,1)"/>
</svg>
